<svg width="22" height="23" viewBox="0 0 22 23" fill="none" xmlns="http://www.w3.org/2000/svg">
<g filter="url(#filter0_d_9_4)">
<path d="M4.60003 1.6C4.51516 1.60001 4.43377 1.63373 4.37376 1.69374C4.31375 1.75374 4.28004 1.83513 4.28003 1.92V14.08C4.28004 14.1649 4.31375 14.2463 4.37376 14.3063C4.43377 14.3663 4.51516 14.4 4.60003 14.4H5.56003C5.60243 14.4006 5.64453 14.3928 5.68388 14.377C5.72323 14.3611 5.75905 14.3377 5.78925 14.3079C5.81944 14.2781 5.84342 14.2426 5.85979 14.2035C5.87616 14.1644 5.88459 14.1224 5.88459 14.08C5.88459 14.0376 5.87616 13.9956 5.85979 13.9565C5.84342 13.9174 5.81944 13.8819 5.78925 13.8521C5.75905 13.8223 5.72323 13.7989 5.68388 13.783C5.64453 13.7672 5.60243 13.7594 5.56003 13.76H4.92003V2.24H5.56003C5.60243 2.2406 5.64453 2.23277 5.68388 2.21695C5.72323 2.20114 5.75905 2.17767 5.78925 2.14789C5.81944 2.11812 5.84342 2.08264 5.85979 2.04352C5.87616 2.00439 5.88459 1.96241 5.88459 1.92C5.88459 1.87759 5.87616 1.83561 5.85979 1.79648C5.84342 1.75736 5.81944 1.72188 5.78925 1.69211C5.75905 1.66233 5.72323 1.63886 5.68388 1.62305C5.64453 1.60723 5.60243 1.5994 5.56003 1.6H4.60003ZM16.44 1.6C16.3976 1.5994 16.3555 1.60723 16.3162 1.62305C16.2768 1.63886 16.241 1.66233 16.2108 1.69211C16.1806 1.72188 16.1566 1.75736 16.1403 1.79648C16.1239 1.83561 16.1155 1.87759 16.1155 1.92C16.1155 1.96241 16.1239 2.00439 16.1403 2.04352C16.1566 2.08264 16.1806 2.11812 16.2108 2.14789C16.241 2.17767 16.2768 2.20114 16.3162 2.21695C16.3555 2.23277 16.3976 2.2406 16.44 2.24H17.08V13.76H16.44C16.3976 13.7594 16.3555 13.7672 16.3162 13.783C16.2768 13.7989 16.241 13.8223 16.2108 13.8521C16.1806 13.8819 16.1566 13.9174 16.1403 13.9565C16.1239 13.9956 16.1155 14.0376 16.1155 14.08C16.1155 14.1224 16.1239 14.1644 16.1403 14.2035C16.1566 14.2426 16.1806 14.2781 16.2108 14.3079C16.241 14.3377 16.2768 14.3611 16.3162 14.377C16.3555 14.3928 16.3976 14.4006 16.44 14.4H17.4C17.4849 14.4 17.5663 14.3663 17.6263 14.3063C17.6863 14.2463 17.72 14.1649 17.72 14.08V1.92C17.72 1.83513 17.6863 1.75374 17.6263 1.69374C17.5663 1.63373 17.4849 1.60001 17.4 1.6H16.44ZM12.9438 5.60313C12.5923 5.596 12.2379 5.68329 11.9532 5.87937C11.7704 6.00546 11.613 6.1673 11.4319 6.3225C11.1564 5.77274 10.6574 5.62585 10.0888 5.61625C9.51246 5.60633 9.05472 5.86937 8.6544 6.34937V5.76H7.48003V10.24H8.65253C8.65253 10.24 8.65058 8.56512 8.65378 7.73312C8.65442 7.58528 8.66057 7.43432 8.69065 7.29C8.78345 6.84552 9.2522 6.57102 9.70628 6.6075C10.1389 6.64238 10.392 6.87861 10.4132 7.39125C10.4167 7.48053 10.4132 10.24 10.4132 10.24H11.5863V7.75312C11.5882 7.56144 11.6086 7.3656 11.655 7.18C11.7593 6.764 12.149 6.55944 12.6063 6.61C13.0095 6.65448 13.3165 6.87187 13.3463 7.31187V10.24H14.52V7.04C14.52 6.72 14.4389 6.55708 14.3419 6.36188C14.1075 5.88967 13.5296 5.615 12.9438 5.60313Z" fill="white"/>
</g>
<defs>
<filter id="filter0_d_9_4" x="-1" y="0" width="24" height="24" filterUnits="userSpaceOnUse" color-interpolation-filters="sRGB">
<feFlood flood-opacity="0" result="BackgroundImageFix"/>
<feColorMatrix in="SourceAlpha" type="matrix" values="0 0 0 0 0 0 0 0 0 0 0 0 0 0 0 0 0 0 127 0" result="hardAlpha"/>
<feOffset dy="4"/>
<feGaussianBlur stdDeviation="2"/>
<feComposite in2="hardAlpha" operator="out"/>
<feColorMatrix type="matrix" values="0 0 0 0 0 0 0 0 0 0 0 0 0 0 0 0 0 0 0.25 0"/>
<feBlend mode="normal" in2="BackgroundImageFix" result="effect1_dropShadow_9_4"/>
<feBlend mode="normal" in="SourceGraphic" in2="effect1_dropShadow_9_4" result="shape"/>
</filter>
</defs>
</svg>
